<svg id="visual" viewBox="0 0 900 600" width="900" height="600" xmlns="http://www.w3.org/2000/svg" xmlns:xlink="http://www.w3.org/1999/xlink" version="1.1">
<g stroke-width="1" stroke-linejoin="bevel"><path d="M488 276L407 221L401 298Z" fill="#c70ee6" stroke="#c70ee6"></path><path d="M401 298L405 391L488 276Z" fill="#901bbe" stroke="#901bbe"></path><path d="M488 276L538 165L407 221Z" fill="#901bbe" stroke="#901bbe"></path><path d="M538 165L389 117L407 221Z" fill="#a219cb" stroke="#a219cb"></path><path d="M284 212L282 304L401 298Z" fill="#901bbe" stroke="#901bbe"></path><path d="M401 298L311 366L405 391Z" fill="#a219cb" stroke="#a219cb"></path><path d="M284 212L401 298L407 221Z" fill="#761ba9" stroke="#761ba9"></path><path d="M389 117L284 212L407 221Z" fill="#901bbe" stroke="#901bbe"></path><path d="M282 304L311 366L401 298Z" fill="#7e1bb0" stroke="#7e1bb0"></path><path d="M537 401L589 338L488 276Z" fill="#be13df" stroke="#be13df"></path><path d="M488 276L612 199L538 165Z" fill="#a219cb" stroke="#a219cb"></path><path d="M405 391L537 401L488 276Z" fill="#901bbe" stroke="#901bbe"></path><path d="M538 165L510 92L389 117Z" fill="#a219cb" stroke="#a219cb"></path><path d="M589 338L612 199L488 276Z" fill="#be13df" stroke="#be13df"></path><path d="M538 165L593 115L510 92Z" fill="#b415d8" stroke="#b415d8"></path><path d="M612 199L593 115L538 165Z" fill="#901bbe" stroke="#901bbe"></path><path d="M537 401L565 437L589 338Z" fill="#ab18d2" stroke="#ab18d2"></path><path d="M507 536L565 437L537 401Z" fill="#b415d8" stroke="#b415d8"></path><path d="M399 491L537 401L405 391Z" fill="#c70ee6" stroke="#c70ee6"></path><path d="M324 507L399 491L405 391Z" fill="#b415d8" stroke="#b415d8"></path><path d="M378 0L270 90L389 117Z" fill="#a219cb" stroke="#a219cb"></path><path d="M389 117L270 90L284 212Z" fill="#7e1bb0" stroke="#7e1bb0"></path><path d="M284 212L178 309L282 304Z" fill="#a219cb" stroke="#a219cb"></path><path d="M270 90L202 171L284 212Z" fill="#c70ee6" stroke="#c70ee6"></path><path d="M282 304L178 309L311 366Z" fill="#7e1bb0" stroke="#7e1bb0"></path><path d="M730 405L692 262L589 338Z" fill="#c70ee6" stroke="#c70ee6"></path><path d="M589 338L692 262L612 199Z" fill="#d108ec" stroke="#d108ec"></path><path d="M612 199L727 167L593 115Z" fill="#be13df" stroke="#be13df"></path><path d="M202 171L178 309L284 212Z" fill="#c70ee6" stroke="#c70ee6"></path><path d="M311 366L324 507L405 391Z" fill="#991ac4" stroke="#991ac4"></path><path d="M510 92L378 0L389 117Z" fill="#901bbe" stroke="#901bbe"></path><path d="M500 0L378 0L510 92Z" fill="#7e1bb0" stroke="#7e1bb0"></path><path d="M594 0L500 0L510 92Z" fill="#761ba9" stroke="#761ba9"></path><path d="M232 509L324 507L311 366Z" fill="#b415d8" stroke="#b415d8"></path><path d="M392 600L507 536L399 491Z" fill="#a219cb" stroke="#a219cb"></path><path d="M399 491L507 536L537 401Z" fill="#b415d8" stroke="#b415d8"></path><path d="M565 437L730 405L589 338Z" fill="#d108ec" stroke="#d108ec"></path><path d="M178 309L191 434L311 366Z" fill="#be13df" stroke="#be13df"></path><path d="M378 0L290 0L270 90Z" fill="#871bb7" stroke="#871bb7"></path><path d="M270 90L170 112L202 171Z" fill="#c70ee6" stroke="#c70ee6"></path><path d="M692 262L727 167L612 199Z" fill="#7e1bb0" stroke="#7e1bb0"></path><path d="M593 115L594 0L510 92Z" fill="#7e1bb0" stroke="#7e1bb0"></path><path d="M715 74L594 0L593 115Z" fill="#d108ec" stroke="#d108ec"></path><path d="M198 0L170 112L270 90Z" fill="#a219cb" stroke="#a219cb"></path><path d="M202 171L137 199L178 309Z" fill="#c70ee6" stroke="#c70ee6"></path><path d="M170 112L137 199L202 171Z" fill="#d108ec" stroke="#d108ec"></path><path d="M178 309L135 327L191 434Z" fill="#761ba9" stroke="#761ba9"></path><path d="M137 199L135 327L178 309Z" fill="#c70ee6" stroke="#c70ee6"></path><path d="M507 536L605 533L565 437Z" fill="#7e1bb0" stroke="#7e1bb0"></path><path d="M692 262L792 327L727 167Z" fill="#a219cb" stroke="#a219cb"></path><path d="M191 434L232 509L311 366Z" fill="#ab18d2" stroke="#ab18d2"></path><path d="M324 507L392 600L399 491Z" fill="#991ac4" stroke="#991ac4"></path><path d="M662 514L730 405L565 437Z" fill="#c70ee6" stroke="#c70ee6"></path><path d="M727 167L715 74L593 115Z" fill="#a219cb" stroke="#a219cb"></path><path d="M605 533L662 514L565 437Z" fill="#b415d8" stroke="#b415d8"></path><path d="M321 600L392 600L324 507Z" fill="#871bb7" stroke="#871bb7"></path><path d="M507 536L563 600L605 533Z" fill="#a219cb" stroke="#a219cb"></path><path d="M392 600L515 600L507 536Z" fill="#871bb7" stroke="#871bb7"></path><path d="M605 533L684 600L662 514Z" fill="#ab18d2" stroke="#ab18d2"></path><path d="M135 327L113 395L191 434Z" fill="#7e1bb0" stroke="#7e1bb0"></path><path d="M191 434L137 533L232 509Z" fill="#7e1bb0" stroke="#7e1bb0"></path><path d="M0 278L113 395L135 327Z" fill="#7e1bb0" stroke="#7e1bb0"></path><path d="M290 0L198 0L270 90Z" fill="#be13df" stroke="#be13df"></path><path d="M170 112L68 115L137 199Z" fill="#7e1bb0" stroke="#7e1bb0"></path><path d="M232 509L321 600L324 507Z" fill="#d108ec" stroke="#d108ec"></path><path d="M202 600L321 600L232 509Z" fill="#d108ec" stroke="#d108ec"></path><path d="M832 382L792 327L730 405Z" fill="#7e1bb0" stroke="#7e1bb0"></path><path d="M730 405L792 327L692 262Z" fill="#7e1bb0" stroke="#7e1bb0"></path><path d="M727 167L771 70L715 74Z" fill="#ab18d2" stroke="#ab18d2"></path><path d="M515 600L563 600L507 536Z" fill="#d108ec" stroke="#d108ec"></path><path d="M771 70L699 0L715 74Z" fill="#991ac4" stroke="#991ac4"></path><path d="M715 74L699 0L594 0Z" fill="#b415d8" stroke="#b415d8"></path><path d="M835 163L771 70L727 167Z" fill="#ab18d2" stroke="#ab18d2"></path><path d="M109 0L68 115L170 112Z" fill="#991ac4" stroke="#991ac4"></path><path d="M137 199L0 278L135 327Z" fill="#d108ec" stroke="#d108ec"></path><path d="M113 395L137 533L191 434Z" fill="#ab18d2" stroke="#ab18d2"></path><path d="M792 327L835 163L727 167Z" fill="#ab18d2" stroke="#ab18d2"></path><path d="M832 516L730 405L662 514Z" fill="#a219cb" stroke="#a219cb"></path><path d="M832 516L832 382L730 405Z" fill="#d108ec" stroke="#d108ec"></path><path d="M792 327L900 277L835 163Z" fill="#ab18d2" stroke="#ab18d2"></path><path d="M137 533L202 600L232 509Z" fill="#c70ee6" stroke="#c70ee6"></path><path d="M563 600L684 600L605 533Z" fill="#761ba9" stroke="#761ba9"></path><path d="M198 0L109 0L170 112Z" fill="#871bb7" stroke="#871bb7"></path><path d="M0 200L0 278L137 199Z" fill="#c70ee6" stroke="#c70ee6"></path><path d="M113 395L0 518L137 533Z" fill="#ab18d2" stroke="#ab18d2"></path><path d="M0 200L137 199L68 115Z" fill="#991ac4" stroke="#991ac4"></path><path d="M0 76L0 200L68 115Z" fill="#ab18d2" stroke="#ab18d2"></path><path d="M0 600L132 600L137 533Z" fill="#be13df" stroke="#be13df"></path><path d="M137 533L132 600L202 600Z" fill="#7e1bb0" stroke="#7e1bb0"></path><path d="M832 382L900 277L792 327Z" fill="#901bbe" stroke="#901bbe"></path><path d="M900 108L820 0L771 70Z" fill="#b415d8" stroke="#b415d8"></path><path d="M771 70L820 0L699 0Z" fill="#ab18d2" stroke="#ab18d2"></path><path d="M900 108L771 70L835 163Z" fill="#871bb7" stroke="#871bb7"></path><path d="M0 278L0 416L113 395Z" fill="#761ba9" stroke="#761ba9"></path><path d="M684 600L832 516L662 514Z" fill="#b415d8" stroke="#b415d8"></path><path d="M832 382L900 386L900 277Z" fill="#be13df" stroke="#be13df"></path><path d="M900 277L900 179L835 163Z" fill="#b415d8" stroke="#b415d8"></path><path d="M109 0L0 76L68 115Z" fill="#a219cb" stroke="#a219cb"></path><path d="M900 475L900 386L832 382Z" fill="#c70ee6" stroke="#c70ee6"></path><path d="M900 179L900 108L835 163Z" fill="#761ba9" stroke="#761ba9"></path><path d="M0 416L0 518L113 395Z" fill="#c70ee6" stroke="#c70ee6"></path><path d="M832 516L900 475L832 382Z" fill="#761ba9" stroke="#761ba9"></path><path d="M109 0L0 0L0 76Z" fill="#901bbe" stroke="#901bbe"></path><path d="M684 600L833 600L832 516Z" fill="#761ba9" stroke="#761ba9"></path>
<path d="M832 516L900 600L900 475Z" fill="#be13df" stroke="#be13df"></path>
<path d="M900 108L900 0L820 0Z" fill="#901bbe" stroke="#901bbe"></path>
<path d="M0 518L0 600L137 533Z" fill="#a219cb" stroke="#a219cb"></path>
<path d="M833 600L900 600L832 516Z" fill="#ab18d2" stroke="#ab18d2"></path></g></svg>
