<svg id="visual" viewBox="0 0 900 600" width="900" height="600" xmlns="http://www.w3.org/2000/svg" xmlns:xlink="http://www.w3.org/1999/xlink" version="1.1"><g stroke-width="1" stroke-linejoin="bevel"><path d="M415 331L477 394L516 327Z" fill="#991ac4" stroke="#991ac4"></path><path d="M477 394L566 337L516 327Z" fill="#d108ec" stroke="#d108ec"></path><path d="M630 190L462 227L516 327Z" fill="#c70ee6" stroke="#c70ee6"></path><path d="M516 327L462 227L415 331Z" fill="#a219cb" stroke="#a219cb"></path><path d="M415 331L372 429L477 394Z" fill="#a219cb" stroke="#a219cb"></path><path d="M477 394L605 382L566 337Z" fill="#ab18d2" stroke="#ab18d2"></path><path d="M561 497L605 382L477 394Z" fill="#b415d8" stroke="#b415d8"></path><path d="M462 227L410 180L415 331Z" fill="#ab18d2" stroke="#ab18d2"></path><path d="M415 331L272 410L372 429Z" fill="#901bbe" stroke="#901bbe"></path><path d="M372 429L379 501L477 394Z" fill="#901bbe" stroke="#901bbe"></path><path d="M528 526L561 497L477 394Z" fill="#d108ec" stroke="#d108ec"></path><path d="M379 501L528 526L477 394Z" fill="#d108ec" stroke="#d108ec"></path><path d="M410 180L320 205L415 331Z" fill="#901bbe" stroke="#901bbe"></path><path d="M372 429L311 530L379 501Z" fill="#a219cb" stroke="#a219cb"></path><path d="M267 285L272 410L415 331Z" fill="#a219cb" stroke="#a219cb"></path><path d="M320 205L267 285L415 331Z" fill="#761ba9" stroke="#761ba9"></path><path d="M720 436L688 334L605 382Z" fill="#7e1bb0" stroke="#7e1bb0"></path><path d="M605 382L688 334L566 337Z" fill="#be13df" stroke="#be13df"></path><path d="M566 337L630 190L516 327Z" fill="#871bb7" stroke="#871bb7"></path><path d="M462 227L428 117L410 180Z" fill="#901bbe" stroke="#901bbe"></path><path d="M688 334L630 190L566 337Z" fill="#871bb7" stroke="#871bb7"></path><path d="M410 180L428 117L320 205Z" fill="#871bb7" stroke="#871bb7"></path><path d="M535 64L428 117L462 227Z" fill="#871bb7" stroke="#871bb7"></path><path d="M267 285L239 382L272 410Z" fill="#761ba9" stroke="#761ba9"></path><path d="M272 410L311 530L372 429Z" fill="#761ba9" stroke="#761ba9"></path><path d="M184 520L311 530L272 410Z" fill="#761ba9" stroke="#761ba9"></path><path d="M379 501L494 600L528 526Z" fill="#a219cb" stroke="#a219cb"></path><path d="M174 228L213 291L267 285Z" fill="#871bb7" stroke="#871bb7"></path><path d="M267 285L213 291L239 382Z" fill="#d108ec" stroke="#d108ec"></path><path d="M174 228L267 285L320 205Z" fill="#b415d8" stroke="#b415d8"></path><path d="M394 600L494 600L379 501Z" fill="#a219cb" stroke="#a219cb"></path><path d="M631 600L661 526L561 497Z" fill="#c70ee6" stroke="#c70ee6"></path><path d="M561 497L661 526L605 382Z" fill="#761ba9" stroke="#761ba9"></path><path d="M311 530L394 600L379 501Z" fill="#d108ec" stroke="#d108ec"></path><path d="M631 600L561 497L528 526Z" fill="#b415d8" stroke="#b415d8"></path><path d="M661 526L720 436L605 382Z" fill="#991ac4" stroke="#991ac4"></path><path d="M688 334L713 223L630 190Z" fill="#761ba9" stroke="#761ba9"></path><path d="M780 293L713 223L688 334Z" fill="#7e1bb0" stroke="#7e1bb0"></path><path d="M633 107L535 64L630 190Z" fill="#761ba9" stroke="#761ba9"></path><path d="M630 190L535 64L462 227Z" fill="#991ac4" stroke="#991ac4"></path><path d="M730 128L633 107L630 190Z" fill="#d108ec" stroke="#d108ec"></path><path d="M227 600L306 600L311 530Z" fill="#a219cb" stroke="#a219cb"></path><path d="M311 530L306 600L394 600Z" fill="#d108ec" stroke="#d108ec"></path><path d="M661 526L792 518L720 436Z" fill="#ab18d2" stroke="#ab18d2"></path><path d="M494 600L631 600L528 526Z" fill="#ab18d2" stroke="#ab18d2"></path><path d="M792 518L773 370L720 436Z" fill="#be13df" stroke="#be13df"></path><path d="M720 436L773 370L688 334Z" fill="#d108ec" stroke="#d108ec"></path><path d="M272 71L174 228L320 205Z" fill="#ab18d2" stroke="#ab18d2"></path><path d="M139 425L184 520L239 382Z" fill="#b415d8" stroke="#b415d8"></path><path d="M239 382L184 520L272 410Z" fill="#b415d8" stroke="#b415d8"></path><path d="M272 71L320 205L428 117Z" fill="#7e1bb0" stroke="#7e1bb0"></path><path d="M773 370L780 293L688 334Z" fill="#991ac4" stroke="#991ac4"></path><path d="M713 223L730 128L630 190Z" fill="#871bb7" stroke="#871bb7"></path><path d="M139 425L239 382L100 335Z" fill="#a219cb" stroke="#a219cb"></path><path d="M402 0L272 71L428 117Z" fill="#871bb7" stroke="#871bb7"></path><path d="M100 335L239 382L213 291Z" fill="#d108ec" stroke="#d108ec"></path><path d="M838 234L730 128L713 223Z" fill="#b415d8" stroke="#b415d8"></path><path d="M637 0L485 0L535 64Z" fill="#7e1bb0" stroke="#7e1bb0"></path><path d="M637 0L535 64L633 107Z" fill="#991ac4" stroke="#991ac4"></path><path d="M535 64L485 0L428 117Z" fill="#c70ee6" stroke="#c70ee6"></path><path d="M485 0L402 0L428 117Z" fill="#761ba9" stroke="#761ba9"></path><path d="M184 520L227 600L311 530Z" fill="#761ba9" stroke="#761ba9"></path><path d="M631 600L716 600L661 526Z" fill="#991ac4" stroke="#991ac4"></path><path d="M139 425L124 469L184 520Z" fill="#a219cb" stroke="#a219cb"></path><path d="M184 520L128 600L227 600Z" fill="#7e1bb0" stroke="#7e1bb0"></path><path d="M0 386L124 469L139 425Z" fill="#991ac4" stroke="#991ac4"></path><path d="M68 206L100 335L174 228Z" fill="#901bbe" stroke="#901bbe"></path><path d="M174 228L100 335L213 291Z" fill="#991ac4" stroke="#991ac4"></path><path d="M716 600L792 518L661 526Z" fill="#7e1bb0" stroke="#7e1bb0"></path><path d="M900 290L838 234L780 293Z" fill="#901bbe" stroke="#901bbe"></path><path d="M726 0L637 0L633 107Z" fill="#d108ec" stroke="#d108ec"></path><path d="M780 293L838 234L713 223Z" fill="#871bb7" stroke="#871bb7"></path><path d="M730 128L726 0L633 107Z" fill="#be13df" stroke="#be13df"></path><path d="M900 290L780 293L773 370Z" fill="#c70ee6" stroke="#c70ee6"></path><path d="M183 0L176 85L272 71Z" fill="#871bb7" stroke="#871bb7"></path><path d="M272 71L176 85L174 228Z" fill="#c70ee6" stroke="#c70ee6"></path><path d="M402 0L266 0L272 71Z" fill="#901bbe" stroke="#901bbe"></path><path d="M135 81L68 206L174 228Z" fill="#d108ec" stroke="#d108ec"></path><path d="M0 502L128 600L124 469Z" fill="#c70ee6" stroke="#c70ee6"></path><path d="M176 85L135 81L174 228Z" fill="#901bbe" stroke="#901bbe"></path><path d="M183 0L135 81L176 85Z" fill="#b415d8" stroke="#b415d8"></path><path d="M0 386L139 425L100 335Z" fill="#d108ec" stroke="#d108ec"></path><path d="M124 469L128 600L184 520Z" fill="#901bbe" stroke="#901bbe"></path><path d="M831 67L726 0L730 128Z" fill="#be13df" stroke="#be13df"></path><path d="M716 600L813 600L792 518Z" fill="#7e1bb0" stroke="#7e1bb0"></path><path d="M900 428L900 290L773 370Z" fill="#a219cb" stroke="#a219cb"></path><path d="M900 428L773 370L792 518Z" fill="#d108ec" stroke="#d108ec"></path><path d="M838 234L831 67L730 128Z" fill="#7e1bb0" stroke="#7e1bb0"></path><path d="M900 488L900 428L792 518Z" fill="#991ac4" stroke="#991ac4"></path><path d="M266 0L183 0L272 71Z" fill="#be13df" stroke="#be13df"></path><path d="M900 290L900 236L838 234Z" fill="#7e1bb0" stroke="#7e1bb0"></path><path d="M900 80L831 67L838 234Z" fill="#a219cb" stroke="#a219cb"></path><path d="M900 600L900 488L792 518Z" fill="#991ac4" stroke="#991ac4"></path><path d="M0 294L0 386L100 335Z" fill="#be13df" stroke="#be13df"></path><path d="M0 211L0 294L68 206Z" fill="#ab18d2" stroke="#ab18d2"></path><path d="M68 206L0 294L100 335Z" fill="#d108ec" stroke="#d108ec"></path><path d="M0 211L68 206L0 131Z" fill="#991ac4" stroke="#991ac4"></path><path d="M900 0L806 0L831 67Z" fill="#c70ee6" stroke="#c70ee6"></path><path d="M831 67L806 0L726 0Z" fill="#ab18d2" stroke="#ab18d2"></path><path d="M0 131L68 206L135 81Z" fill="#7e1bb0" stroke="#7e1bb0"></path><path d="M0 386L0 502L124 469Z" fill="#a219cb" stroke="#a219cb"></path><path d="M183 0L101 0L135 81Z" fill="#be13df" stroke="#be13df"></path><path d="M813 600L900 600L792 518Z" fill="#7e1bb0" stroke="#7e1bb0"></path><path d="M900 236L900 80L838 234Z" fill="#7e1bb0" stroke="#7e1bb0"></path><path d="M101 0L0 131L135 81Z" fill="#7e1bb0" stroke="#7e1bb0"></path><path d="M0 502L0 600L128 600Z" fill="#761ba9" stroke="#761ba9"></path><path d="M900 80L900 0L831 67Z" fill="#a219cb" stroke="#a219cb"></path><path d="M101 0L0 0L0 131Z" fill="#871bb7" stroke="#871bb7"></path></g></svg>