<svg id="visual" viewBox="0 0 900 600" width="900" height="600" xmlns="http://www.w3.org/2000/svg" xmlns:xlink="http://www.w3.org/1999/xlink" version="1.1"><rect x="0" y="0" width="900" height="600" fill="#380051"></rect><path d="M0 382L21.5 386.2C43 390.3 86 398.7 128.8 409.7C171.7 420.7 214.3 434.3 257.2 435.3C300 436.3 343 424.7 385.8 415.3C428.7 406 471.3 399 514.2 392.2C557 385.3 600 378.7 642.8 382C685.7 385.3 728.3 398.7 771.2 402.8C814 407 857 402 878.5 399.5L900 397L900 601L878.5 601C857 601 814 601 771.2 601C728.3 601 685.7 601 642.8 601C600 601 557 601 514.2 601C471.3 601 428.7 601 385.8 601C343 601 300 601 257.2 601C214.3 601 171.7 601 128.8 601C86 601 43 601 21.5 601L0 601Z" fill="#71049a"></path><path d="M0 455L21.5 453.5C43 452 86 449 128.8 442.2C171.7 435.3 214.3 424.7 257.2 418C300 411.3 343 408.7 385.8 413.3C428.7 418 471.3 430 514.2 436.8C557 443.7 600 445.3 642.8 447.5C685.7 449.7 728.3 452.3 771.2 457.7C814 463 857 471 878.5 475L900 479L900 601L878.5 601C857 601 814 601 771.2 601C728.3 601 685.7 601 642.8 601C600 601 557 601 514.2 601C471.3 601 428.7 601 385.8 601C343 601 300 601 257.2 601C214.3 601 171.7 601 128.8 601C86 601 43 601 21.5 601L0 601Z" fill="#8b0caa"></path><path d="M0 505L21.5 494.8C43 484.7 86 464.3 128.8 463.8C171.7 463.3 214.3 482.7 257.2 491C300 499.3 343 496.7 385.8 494.2C428.7 491.7 471.3 489.3 514.2 483.7C557 478 600 469 642.8 473C685.7 477 728.3 494 771.2 499.3C814 504.7 857 498.3 878.5 495.2L900 492L900 601L878.5 601C857 601 814 601 771.2 601C728.3 601 685.7 601 642.8 601C600 601 557 601 514.2 601C471.3 601 428.7 601 385.8 601C343 601 300 601 257.2 601C214.3 601 171.7 601 128.8 601C86 601 43 601 21.5 601L0 601Z" fill="#a614ba"></path><path d="M0 487L21.5 496.2C43 505.3 86 523.7 128.8 526.8C171.7 530 214.3 518 257.2 512.7C300 507.3 343 508.7 385.8 506.5C428.7 504.3 471.3 498.7 514.2 501.2C557 503.7 600 514.3 642.8 519.7C685.7 525 728.3 525 771.2 522C814 519 857 513 878.5 510L900 507L900 601L878.5 601C857 601 814 601 771.2 601C728.3 601 685.7 601 642.8 601C600 601 557 601 514.2 601C471.3 601 428.7 601 385.8 601C343 601 300 601 257.2 601C214.3 601 171.7 601 128.8 601C86 601 43 601 21.5 601L0 601Z" fill="#c21cca"></path><path d="M0 548L21.5 551.5C43 555 86 562 128.8 560.2C171.7 558.3 214.3 547.7 257.2 540.5C300 533.3 343 529.7 385.8 535.7C428.7 541.7 471.3 557.3 514.2 561.5C557 565.7 600 558.3 642.8 556.7C685.7 555 728.3 559 771.2 556.5C814 554 857 545 878.5 540.5L900 536L900 601L878.5 601C857 601 814 601 771.2 601C728.3 601 685.7 601 642.8 601C600 601 557 601 514.2 601C471.3 601 428.7 601 385.8 601C343 601 300 601 257.2 601C214.3 601 171.7 601 128.8 601C86 601 43 601 21.5 601L0 601Z" fill="#de23d9"></path></svg>