<svg id="visual" viewBox="0 0 900 600" width="900" height="600" xmlns="http://www.w3.org/2000/svg" xmlns:xlink="http://www.w3.org/1999/xlink" version="1.1"><path d="M0 79L56 67L113 13L169 73L225 31L281 19L338 49L394 19L450 43L506 55L563 79L619 85L675 19L731 13L788 85L844 61L900 61L900 0L844 0L788 0L731 0L675 0L619 0L563 0L506 0L450 0L394 0L338 0L281 0L225 0L169 0L113 0L56 0L0 0Z" fill="#8615e5"></path><path d="M0 85L56 121L113 61L169 121L225 67L281 61L338 97L394 49L450 91L506 97L563 115L619 91L675 61L731 61L788 109L844 97L900 67L900 59L844 59L788 83L731 11L675 17L619 83L563 77L506 53L450 41L394 17L338 47L281 17L225 29L169 71L113 11L56 65L0 77Z" fill="#840bc7"></path><path d="M0 139L56 187L113 97L169 133L225 127L281 79L338 151L394 79L450 157L506 121L563 163L619 133L675 121L731 103L788 169L844 133L900 97L900 65L844 95L788 107L731 59L675 59L619 89L563 113L506 95L450 89L394 47L338 95L281 59L225 65L169 119L113 59L56 119L0 83Z" fill="#7e07ab"></path><path d="M0 265L56 331L113 301L169 235L225 229L281 193L338 235L394 151L450 397L506 325L563 211L619 193L675 265L731 277L788 265L844 205L900 151L900 95L844 131L788 167L731 101L675 119L619 131L563 161L506 119L450 155L394 77L338 149L281 77L225 125L169 131L113 95L56 185L0 137Z" fill="#760891"></path><path d="M0 349L56 361L113 373L169 313L225 313L281 313L338 325L394 199L450 445L506 379L563 277L619 223L675 361L731 307L788 313L844 265L900 181L900 149L844 203L788 263L731 275L675 263L619 191L563 209L506 323L450 395L394 149L338 233L281 191L225 227L169 233L113 299L56 329L0 263Z" fill="#74098c"></path><path d="M0 493L56 511L113 439L169 481L225 493L281 469L338 445L394 463L450 481L506 427L563 439L619 367L675 463L731 397L788 469L844 451L900 379L900 179L844 263L788 311L731 305L675 359L619 221L563 275L506 377L450 443L394 197L338 323L281 311L225 311L169 311L113 371L56 359L0 347Z" fill="#760891"></path><path d="M0 529L56 535L113 469L169 499L225 529L281 487L338 505L394 523L450 493L506 469L563 451L619 409L675 469L731 451L788 523L844 481L900 421L900 377L844 449L788 467L731 395L675 461L619 365L563 437L506 425L450 479L394 461L338 443L281 467L225 491L169 479L113 437L56 509L0 491Z" fill="#7e07ab"></path><path d="M0 571L56 583L113 535L169 571L225 547L281 541L338 535L394 553L450 511L506 541L563 463L619 463L675 535L731 463L788 559L844 547L900 475L900 419L844 479L788 521L731 449L675 467L619 407L563 449L506 467L450 491L394 521L338 503L281 485L225 527L169 497L113 467L56 533L0 527Z" fill="#840bc7"></path><path d="M0 601L56 601L113 601L169 601L225 601L281 601L338 601L394 601L450 601L506 601L563 601L619 601L675 601L731 601L788 601L844 601L900 601L900 473L844 545L788 557L731 461L675 533L619 461L563 461L506 539L450 509L394 551L338 533L281 539L225 545L169 569L113 533L56 581L0 569Z" fill="#8615e5"></path></svg>