<svg id="visual" viewBox="0 0 900 600" width="900" height="600" xmlns="http://www.w3.org/2000/svg" xmlns:xlink="http://www.w3.org/1999/xlink" version="1.1"><path d="M0 67L21.5 64C43 61 86 55 128.8 55C171.7 55 214.3 61 257.2 63C300 65 343 63 385.8 61C428.7 59 471.3 57 514.2 55C557 53 600 51 642.8 52C685.7 53 728.3 57 771.2 57C814 57 857 53 878.5 51L900 49L900 0L878.5 0C857 0 814 0 771.2 0C728.3 0 685.7 0 642.8 0C600 0 557 0 514.2 0C471.3 0 428.7 0 385.8 0C343 0 300 0 257.2 0C214.3 0 171.7 0 128.8 0C86 0 43 0 21.5 0L0 0Z" fill="#8e00ba"></path><path d="M0 211L21.5 211C43 211 86 211 128.8 210C171.7 209 214.3 207 257.2 207C300 207 343 209 385.8 205C428.7 201 471.3 191 514.2 189C557 187 600 193 642.8 200C685.7 207 728.3 215 771.2 213C814 211 857 199 878.5 193L900 187L900 47L878.5 49C857 51 814 55 771.2 55C728.3 55 685.7 51 642.8 50C600 49 557 51 514.2 53C471.3 55 428.7 57 385.8 59C343 61 300 63 257.2 61C214.3 59 171.7 53 128.8 53C86 53 43 59 21.5 62L0 65Z" fill="#9f00d0"></path><path d="M0 343L21.5 342C43 341 86 339 128.8 338C171.7 337 214.3 337 257.2 340C300 343 343 349 385.8 347C428.7 345 471.3 335 514.2 328C557 321 600 317 642.8 323C685.7 329 728.3 345 771.2 353C814 361 857 361 878.5 361L900 361L900 185L878.5 191C857 197 814 209 771.2 211C728.3 213 685.7 205 642.8 198C600 191 557 185 514.2 187C471.3 189 428.7 199 385.8 203C343 207 300 205 257.2 205C214.3 205 171.7 207 128.8 208C86 209 43 209 21.5 209L0 209Z" fill="#b000e8"></path><path d="M0 409L21.5 410C43 411 86 413 128.8 412C171.7 411 214.3 407 257.2 406C300 405 343 407 385.8 408C428.7 409 471.3 409 514.2 406C557 403 600 397 642.8 399C685.7 401 728.3 411 771.2 417C814 423 857 425 878.5 426L900 427L900 359L878.5 359C857 359 814 359 771.2 351C728.3 343 685.7 327 642.8 321C600 315 557 319 514.2 326C471.3 333 428.7 343 385.8 345C343 347 300 341 257.2 338C214.3 335 171.7 335 128.8 336C86 337 43 339 21.5 340L0 341Z" fill="#c100ff"></path><path d="M0 505L21.5 505C43 505 86 505 128.8 503C171.7 501 214.3 497 257.2 495C300 493 343 493 385.8 495C428.7 497 471.3 501 514.2 501C557 501 600 497 642.8 499C685.7 501 728.3 509 771.2 511C814 513 857 509 878.5 507L900 505L900 425L878.5 424C857 423 814 421 771.2 415C728.3 409 685.7 399 642.8 397C600 395 557 401 514.2 404C471.3 407 428.7 407 385.8 406C343 405 300 403 257.2 404C214.3 405 171.7 409 128.8 410C86 411 43 409 21.5 408L0 407Z" fill="#ca3cff"></path><path d="M0 547L21.5 549C43 551 86 555 128.8 555C171.7 555 214.3 551 257.2 548C300 545 343 543 385.8 545C428.7 547 471.3 553 514.2 554C557 555 600 551 642.8 551C685.7 551 728.3 555 771.2 555C814 555 857 551 878.5 549L900 547L900 503L878.5 505C857 507 814 511 771.2 509C728.3 507 685.7 499 642.8 497C600 495 557 499 514.2 499C471.3 499 428.7 495 385.8 493C343 491 300 491 257.2 493C214.3 495 171.7 499 128.8 501C86 503 43 503 21.5 503L0 503Z" fill="#d25aff"></path><path d="M0 601L21.5 601C43 601 86 601 128.8 601C171.7 601 214.3 601 257.2 601C300 601 343 601 385.8 601C428.7 601 471.3 601 514.2 601C557 601 600 601 642.8 601C685.7 601 728.3 601 771.2 601C814 601 857 601 878.5 601L900 601L900 545L878.5 547C857 549 814 553 771.2 553C728.3 553 685.7 549 642.8 549C600 549 557 553 514.2 552C471.3 551 428.7 545 385.8 543C343 541 300 543 257.2 546C214.3 549 171.7 553 128.8 553C86 553 43 549 21.5 547L0 545Z" fill="#d972ff"></path></svg>