<svg id="visual" viewBox="0 0 900 600" width="900" height="600" xmlns="http://www.w3.org/2000/svg" xmlns:xlink="http://www.w3.org/1999/xlink" version="1.1"><rect x="0" y="0" width="900" height="600" fill="#002233"></rect><path d="M0 448L13.7 440.8C27.3 433.7 54.7 419.3 82 437C109.3 454.7 136.7 504.3 163.8 521.2C191 538 218 522 245.2 500.8C272.3 479.7 299.7 453.3 327 438.8C354.3 424.3 381.7 421.7 409 418.8C436.3 416 463.7 413 491 434.2C518.3 455.3 545.7 500.7 573 504C600.3 507.3 627.7 468.7 654.8 466C682 463.3 709 496.7 736.2 517.5C763.3 538.3 790.7 546.7 818 552.2C845.3 557.7 872.7 560.3 886.3 561.7L900 563L900 601L886.3 601C872.7 601 845.3 601 818 601C790.7 601 763.3 601 736.2 601C709 601 682 601 654.8 601C627.7 601 600.3 601 573 601C545.7 601 518.3 601 491 601C463.7 601 436.3 601 409 601C381.7 601 354.3 601 327 601C299.7 601 272.3 601 245.2 601C218 601 191 601 163.8 601C136.7 601 109.3 601 82 601C54.7 601 27.3 601 13.7 601L0 601Z" fill="#0066FF" stroke-linecap="round" stroke-linejoin="miter"></path></svg>