<svg id="visual" viewBox="0 0 3200 1200" width="3200" height="1200" xmlns="http://www.w3.org/2000/svg" xmlns:xlink="http://www.w3.org/1999/xlink" version="1.1"><rect x="0" y="0" width="3200" height="1200" fill="#002233"></rect><path d="M0 979L457 979L457 856L914 856L914 972L1371 972L1371 758L1829 758L1829 977L2286 977L2286 1037L2743 1037L2743 790L3200 790L3200 1011L3200 1201L3200 1201L2743 1201L2743 1201L2286 1201L2286 1201L1829 1201L1829 1201L1371 1201L1371 1201L914 1201L914 1201L457 1201L457 1201L0 1201Z" fill="#FF0066" stroke-linecap="square" stroke-linejoin="miter"></path></svg>