<svg id="visual" viewBox="0 0 900 600" width="900" height="600" xmlns="http://www.w3.org/2000/svg" xmlns:xlink="http://www.w3.org/1999/xlink" version="1.1"><rect x="0" y="0" width="900" height="600" fill="#002233"></rect><path d="M0 460L129 460L129 422L257 422L257 509L386 509L386 384L514 384L514 438L643 438L643 412L771 412L771 374L900 374L900 414L900 601L900 601L771 601L771 601L643 601L643 601L514 601L514 601L386 601L386 601L257 601L257 601L129 601L129 601L0 601Z" fill="#FF0066" stroke-linecap="square" stroke-linejoin="miter"></path></svg>