<svg id="visual" viewBox="0 0 900 600" width="900" height="600" xmlns="http://www.w3.org/2000/svg" xmlns:xlink="http://www.w3.org/1999/xlink" version="1.1"><rect x="0" y="0" width="900" height="600" fill="#002233"></rect><path d="M0 507L13.7 513.5C27.3 520 54.7 533 82 523.5C109.3 514 136.7 482 163.8 461.5C191 441 218 432 245.2 440.5C272.3 449 299.7 475 327 482.8C354.3 490.7 381.7 480.3 409 473.2C436.3 466 463.7 462 491 475.2C518.3 488.3 545.7 518.7 573 529.2C600.3 539.7 627.7 530.3 654.8 531.2C682 532 709 543 736.2 522.8C763.3 502.7 790.7 451.3 818 442.7C845.3 434 872.7 468 886.3 485L900 502L900 601L886.3 601C872.7 601 845.3 601 818 601C790.7 601 763.3 601 736.2 601C709 601 682 601 654.8 601C627.7 601 600.3 601 573 601C545.7 601 518.3 601 491 601C463.7 601 436.3 601 409 601C381.7 601 354.3 601 327 601C299.7 601 272.3 601 245.2 601C218 601 191 601 163.8 601C136.7 601 109.3 601 82 601C54.7 601 27.3 601 13.7 601L0 601Z" fill="#0066FF" stroke-linecap="round" stroke-linejoin="miter"></path></svg>